<svg width="27" height="26" viewBox="0 0 27 26" fill="none" xmlns="http://www.w3.org/2000/svg">
<path d="M13.4809 3.02038C16.8331 3.02038 17.2302 3.03319 18.554 3.09359C19.7781 3.14941 20.4429 3.35393 20.8853 3.52587C21.4713 3.75361 21.8895 4.02567 22.3288 4.46497C22.7681 4.90432 23.0402 5.32254 23.2679 5.90855C23.4399 6.35094 23.6444 7.0157 23.7002 8.23976C23.7606 9.56359 23.7734 9.96068 23.7734 13.3129C23.7734 16.6651 23.7606 17.0622 23.7002 18.386C23.6444 19.6101 23.4399 20.2748 23.2679 20.7172C23.0402 21.3032 22.7681 21.7215 22.3288 22.1608C21.8895 22.6001 21.4713 22.8722 20.8853 23.0999C20.4429 23.2718 19.7781 23.4764 18.554 23.5322C17.2304 23.5926 16.8334 23.6054 13.4809 23.6054C10.1284 23.6054 9.73144 23.5926 8.40775 23.5322C7.18369 23.4764 6.51893 23.2718 6.07654 23.0999C5.49052 22.8722 5.0723 22.6001 4.633 22.1608C4.1937 21.7215 3.92159 21.3032 3.69384 20.7172C3.52191 20.2748 3.31739 19.6101 3.26157 18.386C3.20117 17.0622 3.18836 16.6651 3.18836 13.3129C3.18836 9.96068 3.20117 9.56359 3.26157 8.23976C3.31739 7.0157 3.52191 6.35094 3.69384 5.90855C3.92159 5.32254 4.19365 4.90432 4.633 4.46502C5.0723 4.02567 5.49052 3.75361 6.07654 3.52587C6.51893 3.35393 7.18369 3.14941 8.40775 3.09359C9.73158 3.03319 10.1287 3.02038 13.4809 3.02038ZM13.4809 0.758301C10.0713 0.758301 9.64372 0.772753 8.30464 0.833851C6.96835 0.8948 6.05571 1.10705 5.25714 1.41738C4.43156 1.73822 3.73142 2.1675 3.03342 2.86545C2.33547 3.56344 1.90619 4.26358 1.5854 5.08916C1.27502 5.88772 1.06277 6.80036 1.00182 8.13665C0.940722 9.47573 0.92627 9.90327 0.92627 13.3129C0.92627 16.7225 0.940722 17.15 1.00182 18.4891C1.06277 19.8254 1.27502 20.7381 1.5854 21.5366C1.90619 22.3622 2.33547 23.0623 3.03342 23.7603C3.73142 24.4583 4.43156 24.8876 5.25714 25.2083C6.05571 25.5187 6.96835 25.731 8.30464 25.7919C9.64372 25.853 10.0713 25.8675 13.4809 25.8675C16.8905 25.8675 17.3181 25.853 18.6572 25.7919C19.9934 25.731 20.9061 25.5187 21.7047 25.2083C22.5302 24.8876 23.2304 24.4583 23.9284 23.7603C24.6263 23.0623 25.0556 22.3622 25.3764 21.5366C25.6868 20.7381 25.899 19.8254 25.96 18.4891C26.0211 17.15 26.0355 16.7225 26.0355 13.3129C26.0355 9.90327 26.0211 9.47573 25.96 8.13665C25.899 6.80036 25.6868 5.88772 25.3764 5.08916C25.0556 4.26358 24.6263 3.56344 23.9284 2.86545C23.2304 2.1675 22.5302 1.73822 21.7047 1.41738C20.9061 1.10705 19.9934 0.8948 18.6572 0.833851C17.3181 0.772753 16.8905 0.758301 13.4809 0.758301Z" fill="#FFFEF2"/>
<path d="M13.4868 6.87158C9.92618 6.87158 7.03979 9.75796 7.03979 13.3185C7.03979 16.8791 9.92618 19.7655 13.4868 19.7655C17.0473 19.7655 19.9337 16.8791 19.9337 13.3185C19.9337 9.75796 17.0473 6.87158 13.4868 6.87158ZM13.4868 17.5034C11.1755 17.5034 9.30189 15.6298 9.30189 13.3185C9.30189 11.0073 11.1755 9.13367 13.4868 9.13367C15.798 9.13367 17.6716 11.0073 17.6716 13.3185C17.6716 15.6298 15.798 17.5034 13.4868 17.5034Z" fill="#FFFEF2"/>
<path d="M21.6974 6.61303C21.6974 7.44503 21.0229 8.11956 20.1909 8.11956C19.3589 8.11956 18.6843 7.44503 18.6843 6.61303C18.6843 5.78097 19.3589 5.10645 20.1909 5.10645C21.0229 5.10645 21.6974 5.78097 21.6974 6.61303Z" fill="#FFFEF2"/>
</svg>
