<svg width="24" height="23" viewBox="0 0 24 23" fill="none" xmlns="http://www.w3.org/2000/svg">
<path fill-rule="evenodd" clip-rule="evenodd" d="M5.75338 3.14775C5.75338 4.45038 4.78763 5.50458 3.27736 5.50458C1.82594 5.50458 0.860191 4.45038 0.890079 3.14775C0.860191 1.7818 1.82592 0.758301 3.30629 0.758301C4.78761 0.758301 5.72442 1.7818 5.75338 3.14775ZM1.0115 22.5396V7.36644H5.60299V22.5386H1.0115V22.5396Z" fill="#FFFEF2"/>
<path fill-rule="evenodd" clip-rule="evenodd" d="M9.28549 12.2091C9.28549 10.3166 9.22477 8.70314 9.16406 7.36884H13.1522L13.3642 9.44751H13.4548C14.0591 8.4854 15.5694 7.02832 18.0164 7.02832C21.037 7.02832 23.3028 9.07628 23.3028 13.5425V22.542H18.7113V14.1334C18.7113 12.1775 18.0473 10.8441 16.3857 10.8441C15.1164 10.8441 14.3617 11.7439 14.0601 12.612C13.9386 12.9228 13.8789 13.3564 13.8789 13.7919V22.542H9.28734V12.2091H9.28549Z" fill="#FFFEF2"/>
</svg>
