<svg width="192" height="55" viewBox="0 0 192 55" fill="none" xmlns="http://www.w3.org/2000/svg">
<path d="M0.340942 54V1.63632H6.68185V48.375H31.0228V54H0.340942Z" fill="black"/>
<path d="M82.9837 27.8181C82.9837 33.3409 81.9865 38.1136 79.9922 42.1363C77.9979 46.159 75.2621 49.2613 71.7848 51.4431C68.3076 53.625 64.336 54.7159 59.8701 54.7159C55.4042 54.7159 51.4326 53.625 47.9553 51.4431C44.478 49.2613 41.7422 46.159 39.7479 42.1363C37.7536 38.1136 36.7564 33.3409 36.7564 27.8181C36.7564 22.2954 37.7536 17.5227 39.7479 13.5C41.7422 9.47723 44.478 6.37496 47.9553 4.19314C51.4326 2.01132 55.4042 0.92041 59.8701 0.92041C64.336 0.92041 68.3076 2.01132 71.7848 4.19314C75.2621 6.37496 77.9979 9.47723 79.9922 13.5C81.9865 17.5227 82.9837 22.2954 82.9837 27.8181ZM76.8473 27.8181C76.8473 23.284 76.0888 19.4573 74.5718 16.338C73.0718 13.2187 71.0348 10.8579 68.461 9.25564C65.9042 7.65337 63.0405 6.85223 59.8701 6.85223C56.6996 6.85223 53.8274 7.65337 51.2536 9.25564C48.6968 10.8579 46.6598 13.2187 45.1428 16.338C43.6428 19.4573 42.8928 23.284 42.8928 27.8181C42.8928 32.3522 43.6428 36.1789 45.1428 39.2983C46.6598 42.4176 48.6968 44.7784 51.2536 46.3806C53.8274 47.9829 56.6996 48.784 59.8701 48.784C63.0405 48.784 65.9042 47.9829 68.461 46.3806C71.0348 44.7784 73.0718 42.4176 74.5718 39.2983C76.0888 36.1789 76.8473 32.3522 76.8473 27.8181Z" fill="black"/>
<path d="M129.441 18C128.879 16.2784 128.137 14.7358 127.217 13.3721C126.313 11.9914 125.231 10.8153 123.969 9.84371C122.725 8.87212 121.31 8.13064 119.725 7.61927C118.14 7.10791 116.401 6.85223 114.509 6.85223C111.407 6.85223 108.586 7.65337 106.046 9.25564C103.506 10.8579 101.487 13.2187 99.9865 16.338C98.4865 19.4573 97.7365 23.284 97.7365 27.8181C97.7365 32.3522 98.4951 36.1789 100.012 39.2983C101.529 42.4176 103.583 44.7784 106.174 46.3806C108.765 47.9829 111.68 48.784 114.918 48.784C117.918 48.784 120.56 48.1448 122.844 46.8664C125.146 45.571 126.935 43.7471 128.214 41.3948C129.509 39.0255 130.157 36.2386 130.157 33.034L132.1 33.4431H116.35V27.8181H136.293V33.4431C136.293 37.7556 135.373 41.5056 133.532 44.6931C131.708 47.8806 129.185 50.3522 125.964 52.1079C122.759 53.8465 119.077 54.7159 114.918 54.7159C110.282 54.7159 106.208 53.625 102.697 51.4431C99.2025 49.2613 96.4752 46.159 94.5149 42.1363C92.5718 38.1136 91.6002 33.3409 91.6002 27.8181C91.6002 23.6761 92.1542 19.9517 93.2621 16.6448C94.3871 13.321 95.9723 10.4914 98.0178 8.15621C100.063 5.82098 102.484 4.03121 105.279 2.78689C108.075 1.54257 111.151 0.92041 114.509 0.92041C117.271 0.92041 119.844 1.33802 122.231 2.17325C124.634 2.99143 126.773 4.15905 128.648 5.67609C130.541 7.17609 132.117 8.97439 133.379 11.071C134.64 13.1505 135.509 15.4602 135.987 18H129.441Z" fill="black"/>
<path d="M191.335 27.8181C191.335 33.3409 190.338 38.1136 188.344 42.1363C186.349 46.159 183.614 49.2613 180.136 51.4431C176.659 53.625 172.688 54.7159 168.222 54.7159C163.756 54.7159 159.784 53.625 156.307 51.4431C152.83 49.2613 150.094 46.159 148.099 42.1363C146.105 38.1136 145.108 33.3409 145.108 27.8181C145.108 22.2954 146.105 17.5227 148.099 13.5C150.094 9.47723 152.83 6.37496 156.307 4.19314C159.784 2.01132 163.756 0.92041 168.222 0.92041C172.688 0.92041 176.659 2.01132 180.136 4.19314C183.614 6.37496 186.349 9.47723 188.344 13.5C190.338 17.5227 191.335 22.2954 191.335 27.8181ZM185.199 27.8181C185.199 23.284 184.44 19.4573 182.923 16.338C181.423 13.2187 179.386 10.8579 176.813 9.25564C174.256 7.65337 171.392 6.85223 168.222 6.85223C165.051 6.85223 162.179 7.65337 159.605 9.25564C157.048 10.8579 155.011 13.2187 153.494 16.338C151.994 19.4573 151.244 23.284 151.244 27.8181C151.244 32.3522 151.994 36.1789 153.494 39.2983C155.011 42.4176 157.048 44.7784 159.605 46.3806C162.179 47.9829 165.051 48.784 168.222 48.784C171.392 48.784 174.256 47.9829 176.813 46.3806C179.386 44.7784 181.423 42.4176 182.923 39.2983C184.44 36.1789 185.199 32.3522 185.199 27.8181Z" fill="black"/>
</svg>
