<svg width="162" height="65" viewBox="0 0 162 65" fill="none" xmlns="http://www.w3.org/2000/svg">
<path d="M0.768245 2.32143C6.00594 0.75 11.1493 3.32143 15.4904 6.13095C20.2562 9.27381 24.6446 13.0833 29.7407 15.6548C34.4121 18.0357 39.4611 18.75 44.1797 16.131C47.1053 14.5119 49.559 12.131 52.0599 9.94048C54.5607 7.75 57.2504 5.41667 60.5062 4.46429C66.6405 2.75 72.3972 7.46429 77.1158 10.75C81.9289 14.131 87.2137 17.75 93.348 16.6548C99.3406 15.6071 104.342 11.2738 109.203 7.89286C113.968 4.51191 119.489 0.845238 125.576 1.9881C131.475 3.08333 136.476 7.13095 141.431 10.2738C145.725 12.9881 150.963 15.9405 156.2 14.5119C157.474 14.131 158.701 13.5119 159.786 12.75C160.353 12.369 159.834 11.4167 159.267 11.7976C157.002 13.4167 154.36 14.0833 151.623 13.6548C148.886 13.2262 146.338 11.8929 143.932 10.5119C138.788 7.51191 134.07 3.60714 128.455 1.65476C115.997 -2.67857 107.174 10.131 96.8398 14.5119C94.1501 15.6548 91.1774 16.2262 88.299 15.5595C85.2791 14.8929 82.5895 13.2262 80.0414 11.5119C75.1812 8.22619 70.1323 3.55952 63.998 3.08333C57.4863 2.55952 52.6261 8.17857 48.049 12.0357C45.6425 14.0833 43.0001 16.0357 39.8386 16.6548C37.3377 17.131 34.7896 16.6548 32.4303 15.75C27.1454 13.7024 22.7099 9.89286 18.0857 6.70238C13.9804 3.79762 9.2618 0.75 4.07129 0.75C2.84445 0.75 1.66479 0.940476 0.485127 1.27381C-0.175483 1.46429 0.107636 2.5119 0.768245 2.32143Z" fill="white"/>
<path d="M0.768224 26.4166C6.00591 24.8451 11.1492 27.4166 15.4904 30.2261C20.2562 33.369 24.6445 37.1309 29.7407 39.7499C34.4121 42.1309 39.4611 42.8451 44.1797 40.2261C47.1053 38.6071 49.559 36.2261 52.0598 34.0356C54.5607 31.8451 57.2503 29.5118 60.5062 28.5594C66.6404 26.8451 72.3972 31.5594 77.1158 34.8451C81.9288 38.2261 87.2137 41.8451 93.3479 40.7499C99.3406 39.7023 104.342 35.369 109.203 31.988C113.968 28.6071 119.489 24.9404 125.576 26.0832C131.475 27.1785 136.476 31.2261 141.431 34.369C145.725 37.0832 150.963 40.0356 156.2 38.6071C157.474 38.2261 158.701 37.6071 159.786 36.8451C160.353 36.4642 159.834 35.5118 159.267 35.8928C157.002 37.5118 154.36 38.1785 151.623 37.7499C148.886 37.3213 146.338 35.988 143.932 34.6071C138.836 31.6071 134.117 27.7023 128.502 25.7499C116.045 21.4166 107.221 34.2261 96.8869 38.6071C94.1973 39.7499 91.2245 40.3213 88.3462 39.6547C85.3262 38.988 82.6366 37.3213 80.0886 35.6071C75.2284 32.3213 70.1794 27.6547 64.0452 27.1785C57.5335 26.6547 52.6733 32.2737 48.0962 36.1309C45.6897 38.1785 43.0472 40.1309 39.8857 40.7499C37.3849 41.2261 34.8368 40.7499 32.4775 39.8451C27.1926 37.7975 22.7571 33.988 18.1328 30.7975C14.0276 27.9404 9.30896 24.8928 4.11846 24.8928C2.89161 24.8928 1.66477 25.0832 0.532292 25.4166C-0.175504 25.5594 0.107614 26.6071 0.768224 26.4166Z" fill="white"/>
<path d="M1.85367 49.2738C7.09136 47.7023 12.2347 50.2738 16.5758 53.0833C21.3417 56.1785 25.73 59.9881 30.8261 62.5595C35.4976 64.9404 40.5465 65.6547 45.2652 63.0357C48.1907 61.4166 50.6444 59.0357 53.1453 56.8452C55.6462 54.6547 58.3358 52.3214 61.5917 51.369C67.7259 49.6547 73.4826 54.369 78.2013 57.6547C83.0143 61.0357 88.2991 64.6547 94.4334 63.5595C100.426 62.5119 105.428 58.1785 110.288 54.7976C115.054 51.4166 120.575 47.75 126.662 48.8928C132.56 49.9881 137.562 54.0357 142.516 57.1785C146.81 59.8928 152.048 62.8452 157.286 61.4166C158.56 61.0357 159.787 60.4166 160.872 59.6547C161.438 59.2738 160.919 58.3214 160.353 58.7023C158.088 60.3214 155.445 60.9881 152.709 60.5595C149.972 60.1309 147.424 58.7976 145.017 57.4166C139.921 54.4166 135.202 50.5119 129.587 48.5595C117.13 44.2261 108.306 57.0357 97.9724 61.4166C95.2827 62.5595 92.31 63.0833 89.4316 62.4642C86.4117 61.7976 83.7221 60.1309 81.174 58.4166C76.3138 55.1309 71.2649 50.4642 65.1306 49.9881C58.6189 49.4642 53.7587 55.0833 49.1816 58.9404C46.7751 60.988 44.1327 62.9404 40.9712 63.5595C38.4703 64.0357 35.9223 63.5595 33.5629 62.6547C28.2781 60.6071 23.7953 56.7976 19.2183 53.6071C15.1131 50.75 10.3944 47.7023 5.20391 47.7023C3.97706 47.7023 2.75021 47.8928 1.61774 48.2261C0.909945 48.4642 1.19306 49.4642 1.85367 49.2738Z" fill="white"/>
</svg>
