<svg width="27" height="20" viewBox="0 0 27 20" fill="none" xmlns="http://www.w3.org/2000/svg">
<path fill-rule="evenodd" clip-rule="evenodd" d="M25.5018 2.33971C25.9193 2.75726 26.2202 3.2769 26.3744 3.8469C27.2626 7.42187 27.0573 13.068 26.3917 16.7809C26.2374 17.3509 25.9365 17.8706 25.519 18.2881C25.1015 18.7057 24.5818 19.0066 24.0118 19.1608C21.9251 19.7299 13.5266 19.7299 13.5266 19.7299C13.5266 19.7299 5.12813 19.7299 3.04144 19.1608C2.47144 19.0066 1.95179 18.7057 1.53424 18.2881C1.1167 17.8706 0.815821 17.3509 0.66158 16.7809C-0.23173 13.2215 0.0131549 7.57191 0.644336 3.86415C0.798575 3.29415 1.09945 2.7745 1.517 2.35695C1.93454 1.93941 2.45419 1.63853 3.02419 1.4843C5.11089 0.91519 13.5094 0.897949 13.5094 0.897949C13.5094 0.897949 21.9079 0.897949 23.9946 1.46704C24.5646 1.62129 25.0842 1.92217 25.5018 2.33971ZM17.8035 10.3139L10.8363 14.3493V6.2785L17.8035 10.3139Z" fill="#FFFEF2"/>
</svg>
